<?xml version="1.0" encoding="UTF-8" standalone="no"?>
<!DOCTYPE svg PUBLIC "-//W3C//DTD SVG 1.1//EN" "http://www.w3.org/Graphics/SVG/1.1/DTD/svg11.dtd">
<svg width="100%" height="100%" viewBox="0 0 1211 456" version="1.1" xmlns="http://www.w3.org/2000/svg" xmlns:xlink="http://www.w3.org/1999/xlink" xml:space="preserve" xmlns:serif="http://www.serif.com/" style="fill-rule:evenodd;clip-rule:evenodd;stroke-linejoin:round;stroke-miterlimit:2;">
    <g transform="matrix(1,0,0,1,-1148.55,-938.944)">
        <g transform="matrix(1,0,0,1,-120.806,-290.801)">
            <g transform="matrix(0.552052,0,0,0.116418,988.944,1505.57)">
                <path d="M2594.19,1033.2L614.922,1033.2L614.922,1540.47L2594.19,1540.47L2594.19,1033.2ZM2579.1,1104.79L2579.1,1468.89C2406.19,1468.89 802.921,1468.89 630.017,1468.89C630.017,1468.89 630.017,1104.79 630.017,1104.79C630.017,1104.79 2579.1,1104.79 2579.1,1104.79L2579.1,1104.79Z" style="fill:rgb(51,51,51);"/>
            </g>
            <g transform="matrix(1.40814e-17,0.229967,-0.116418,7.12857e-18,1448.7,1088.33)">
                <path d="M2594.19,1033.2L614.922,1033.2L614.922,1540.47L2594.19,1540.47L2594.19,1033.2ZM2557.96,1104.79L2557.96,1468.89C2557.96,1468.89 917.182,1468.89 651.159,1468.89C651.159,1468.89 651.159,1104.79 651.159,1104.79C917.182,1104.79 2557.96,1104.79 2557.96,1104.79Z" style="fill:rgb(51,51,51);"/>
            </g>
            <g transform="matrix(1.40814e-17,0.229967,-0.116418,7.12857e-18,2600.41,1088.33)">
                <path d="M2594.19,1033.2L614.922,1033.2L614.922,1540.47L2594.19,1540.47L2594.19,1033.2ZM2557.96,1104.79L2557.96,1468.89C2557.96,1468.89 651.159,1468.89 651.159,1468.89C651.159,1468.89 651.159,1104.79 651.159,1104.79C917.182,1104.79 2557.96,1104.79 2557.96,1104.79Z" style="fill:rgb(51,51,51);"/>
            </g>
            <g transform="matrix(0.552052,0,0,0.116418,988.944,1109.46)">
                <path d="M2594.19,1033.2L614.922,1033.2L614.922,1540.47L2594.19,1540.47L2594.19,1033.2ZM2579.1,1104.79L2579.1,1468.89C2579.1,1468.89 630.017,1468.89 630.017,1468.89C630.017,1468.89 630.017,1104.79 630.017,1104.79C630.017,1104.79 2579.1,1104.79 2579.1,1104.79L2579.1,1104.79Z" style="fill:rgb(51,51,51);"/>
            </g>
            <g transform="matrix(0.664298,0,0,1,441.888,-18.3225)">
                <text x="1368.94px" y="1608.6px" style="font-family:'TimesNewRomanPSMT', 'Times New Roman', serif;font-size:401.593px;fill:rgb(51,51,51);">INSER<tspan x="2487.87px 2733.18px " y="1608.6px 1608.6px ">TS</tspan></text>
            </g>
        </g>
    </g>
</svg>
