<?xml version="1.0" encoding="UTF-8" standalone="no"?>
<!DOCTYPE svg PUBLIC "-//W3C//DTD SVG 1.1//EN" "http://www.w3.org/Graphics/SVG/1.1/DTD/svg11.dtd">
<svg width="100%" height="100%" viewBox="0 0 1211 936" version="1.1" xmlns="http://www.w3.org/2000/svg" xmlns:xlink="http://www.w3.org/1999/xlink" xml:space="preserve" xmlns:serif="http://www.serif.com/" style="fill-rule:evenodd;clip-rule:evenodd;stroke-linecap:round;stroke-linejoin:round;stroke-miterlimit:1.5;">
    <g transform="matrix(1,0,0,1,-1148.55,-458.369)">
        <g transform="matrix(1,0,0,1,-120.806,-290.801)">
            <g id="sheep" transform="matrix(1.34101,0.0720222,-0.0720222,1.34101,1569.06,669.182)">
                <path d="M361.843,43.321L349.919,44.554L337.585,50.105L329.157,57.505L323.401,65.728L320.112,76.007L315.795,88.546L310.861,100.675L306.338,113.421L304.077,121.232L300.994,128.838L299.143,134.183L292.771,140.556L286.398,146.312L270.569,160.702L261.318,170.569L242.612,181.259L236.65,181.876L227.194,185.37L206.431,185.37L190.808,182.698L185.874,183.109L177.24,182.287L169.428,182.287L159.766,180.642L153.805,180.231L145.171,181.464L133.042,182.287L122.353,185.576L112.691,188.865L105.496,193.182L97.478,198.116L90.283,203.049L83.089,209.422L77.949,216.206L71.577,227.101L68.699,238.613L66.026,246.219L63.97,259.17L62.943,270.682L62.943,290.211L63.354,298.229L65.615,304.601L65.615,310.974L69.726,319.608L75.277,325.981L80.416,328.037L85.35,327.214L92.468,319.514L93.439,319.581L95.133,324.75L93.573,333.381L89.667,339.96L81.65,343.865L72.604,345.099L65.615,346.538L63.559,348.594L51.842,368.123L46.086,375.318L36.835,383.335L29.846,390.119L29.435,394.23L29.435,397.931L28.818,410.265L40.33,425.683L47.319,428.15L50.608,426.094L57.598,417.665L57.803,410.47L54.309,403.687L52.664,401.014L54.72,394.436L64.587,382.307L69.521,377.579L79.183,374.496L87.817,369.562L102.823,364.217L113.307,361.133L122.764,357.228L130.164,353.938L132.22,352.705L142.91,366.478L151.749,382.718L154.216,390.324L165.728,396.08L169.017,407.592L172.717,410.059L189.574,409.648L195.536,406.976L194.713,396.697L187.519,388.063L181.968,386.624L179.296,381.485L161.411,359.694L159.561,351.266L161.822,342.221L166.756,334.615L201.497,334.82L222.054,333.587L248.162,329.27L260.496,328.448L261.113,340.987L261.318,343.865L255.151,355.994L252.068,366.478L250,372.724L244.667,380.868L243.845,387.035L247.545,391.352L245.284,398.136L246.312,401.22L258.235,405.742L266.458,407.592L270.569,401.425L269.541,393.408L267.67,388.816L267.486,375.318L277.764,358.461L279.614,344.071L287.632,331.942L299.349,320.225L326.484,315.086L356.703,311.796L373.766,307.685L390.91,307.537L396.584,309.535L406.736,319.98L412.824,333.587L414.058,337.082L422.28,348.388L423.925,353.116L428.653,358.461L442.015,360.928L452.911,358.461L454.144,352.705L452.088,345.304L444.071,338.521L439.96,331.531L429.887,318.169L421.664,298.64L416.524,292.267L408.302,288.156L386.511,284.25L367.603,268.577L370.888,257.937L372.121,254.442L375.41,250L376.644,240.052L384.044,229.979L388.361,211.683L395.762,197.91L396.79,188.248L402.134,179.203L402.751,171.597L403.985,156.796L402.751,147.134L401.723,140.145L400.49,128.633L379.316,55.244L370.682,48.049L366.776,44.349L361.843,43.321Z" style="fill:rgb(51,51,51);stroke:white;stroke-width:6.21px;"/>
                <path d="M166.756,334.615L156.765,333.876" style="fill:none;stroke:white;stroke-width:6.21px;"/>
                <path d="M93.049,318.787L87.209,303.553L80.836,287.724" style="fill:none;stroke:white;stroke-width:6.21px;"/>
                <path d="M339.938,71.556L330.893,72.214L325.795,77.805L320.532,83.397L317.736,87.015L315.598,91.948L312.803,99.678L312.474,107.736L314.612,108.558L318.723,108.558L322.835,107.078L324.315,104.94L329.248,102.474L333.36,99.513L337.142,94.415L341.089,90.139L344.872,87.015L347.503,85.206L350.134,82.245L349.477,78.627L347.503,75.503L342.898,72.049L339.938,71.556" style="fill:white;stroke:rgb(51,51,51);stroke-width:6.21px;"/>
                <path d="M379.737,55.768L376.612,55.932L370.198,55.768L366.087,57.084L363.291,59.715L361.811,61.853L358.028,64.32L355.726,67.609L354.246,71.556L353.752,77.476L351.943,83.89L351.779,90.057L351.943,94.58L352.272,99.349L355.068,103.296L357.042,108.558L360.331,112.67L363.455,116.617L367.896,119.413L372.172,120.728L376.776,122.702L382.861,125.169L387.959,125.826L393.222,126.155L399.471,126.32L401.116,125.991L405.885,125.004L414.601,123.36L431.211,121.551L437.461,120.235L449.137,110.203L454.349,97.54L451.604,88.33L445.355,82.903L404.734,65.8L392.071,62.84L384.835,57.906L379.737,55.768Z" style="fill:white;stroke:rgb(51,51,51);stroke-width:6.21px;"/>
                <path d="M131.798,353.155L147.03,342.611L159.981,329.66L169.026,317.943L174.576,301.908L176.279,293.172" style="fill:none;stroke:white;stroke-width:6.21px;"/>
                <path d="M261.05,328.744L277.768,326.174L298.983,320.377" style="fill:none;stroke:white;stroke-width:6.21px;"/>
                <g transform="matrix(0.992483,-0.12238,0.12238,0.992483,-6.29441,44.3468)">
                    <g transform="matrix(0.735003,0.0699104,-0.0739594,0.777572,171.205,15.8519)">
                        <rect x="212.453" y="44.976" width="61.832" height="7.227" style="fill:white;"/>
                    </g>
                    <g transform="matrix(0.610433,0.0665789,-0.105889,0.970852,153.87,-37.2487)">
                        <circle cx="385.21" cy="87.568" r="17.165" style="fill:rgb(51,51,51);stroke:white;stroke-width:3.8px;"/>
                    </g>
                </g>
                <g transform="matrix(0.955816,-0.293966,0.293966,0.955816,-79.0742,78.5732)">
                    <g transform="matrix(0.74356,-0.0399346,0.0399346,0.74356,-1679.87,-297.398)">
                        <path d="M2468.84,791.764C2481.57,842.603 2467.74,883.734 2453.84,908.566L2482.81,853.303L2499.85,828.576L2510.54,813.205L2518.56,806.856L2524.24,807.858L2525.24,817.215L2520.23,839.269L2510.54,864.999L2500.18,883.043L2491.83,895.407L2474.45,914.788L2489.49,904.763L2500.85,898.748L2514.89,897.078L2528.92,899.417L2534.27,905.097L2534.93,914.454L2530.59,925.647L2523.91,935.506L2512.21,949.874L2501.85,959.231L2492.16,963.24L2488.15,959.565L2491.16,951.545L2498.85,943.191L2512.55,931.83L2526.25,921.805L2546.97,906.1L2561.67,897.078L2574.37,888.39L2586.39,883.043L2593.08,881.707L2567.69,892.955L2559.66,905.766L2555.65,915.122L2554.65,925.815L2560,927.152L2569.35,918.129L2578.38,909.107L2585.73,900.419L2591.74,891.397L2593.75,885.048L2593.08,881.707L2588.76,895.87L2587.06,908.773L2587.73,917.461L2590.74,923.81L2594.75,929.157C2595.99,930.18 2597.6,931.112 2601.43,931.496C2603.87,931.519 2606.17,930.2 2608.24,926.768L2609.45,921.137L2612.46,908.773L2617.81,901.756L2626.16,894.739L2642.2,888.39L2650.22,884.38L2636.84,890.512L2622.42,897.879L2611.19,913.983L2613.13,926.149L2620.14,923.476L2627.16,917.127L2633.85,909.107L2638.19,901.756L2644.54,893.402L2650.22,884.38L2638.19,901.756L2638.19,911.446L2639.86,917.127L2645.88,918.464L2653.23,916.459L2660.91,911.781L2668.6,905.432" style="fill:none;stroke:white;stroke-width:8.33px;"/>
                    </g>
                    <g transform="matrix(0.74035,-0.0797316,0.0797316,0.74035,-1698.27,-186.583)">
                        <path d="M2710.62,808.192L2699.59,828.576L2692.57,852.969L2687.56,871.682L2686.56,884.046" style="fill:none;stroke:white;stroke-width:8.33px;"/>
                    </g>
                    <g transform="matrix(0.74035,-0.0797316,0.0797316,0.74035,-1699.99,-188.649)">
                        <circle cx="2682.21" cy="927.486" r="7.351" style="fill:white;"/>
                    </g>
                </g>
            </g>
            <g>
                <g transform="matrix(0.552052,0,0,0.116418,988.944,1505.57)">
                    <path d="M2594.19,1033.2L614.922,1033.2L614.922,1540.47L2594.19,1540.47L2594.19,1033.2ZM2579.1,1104.79L2579.1,1468.89C2406.19,1468.89 802.921,1468.89 630.017,1468.89C630.017,1468.89 630.017,1104.79 630.017,1104.79C630.017,1104.79 2579.1,1104.79 2579.1,1104.79L2579.1,1104.79Z" style="fill:rgb(51,51,51);"/>
                </g>
                <g transform="matrix(1.40814e-17,0.229967,-0.116418,7.12857e-18,1448.7,1088.33)">
                    <path d="M2594.19,1033.2L614.922,1033.2L614.922,1540.47L2594.19,1540.47L2594.19,1033.2ZM2557.96,1104.79L2557.96,1468.89C2557.96,1468.89 917.182,1468.89 651.159,1468.89C651.159,1468.89 651.159,1104.79 651.159,1104.79C917.182,1104.79 2557.96,1104.79 2557.96,1104.79Z" style="fill:rgb(51,51,51);"/>
                </g>
                <g transform="matrix(1.40814e-17,0.229967,-0.116418,7.12857e-18,2600.41,1088.33)">
                    <path d="M2594.19,1033.2L614.922,1033.2L614.922,1540.47L2594.19,1540.47L2594.19,1033.2ZM2557.96,1104.79L2557.96,1468.89C2557.96,1468.89 651.159,1468.89 651.159,1468.89C651.159,1468.89 651.159,1104.79 651.159,1104.79C917.182,1104.79 2557.96,1104.79 2557.96,1104.79Z" style="fill:rgb(51,51,51);"/>
                </g>
                <g transform="matrix(0.552052,0,0,0.116418,988.944,1109.46)">
                    <rect x="614.922" y="1033.2" width="1979.27" height="507.266" style="fill:white;"/>
                    <path d="M2594.19,1033.2L614.922,1033.2L614.922,1540.47L2594.19,1540.47L2594.19,1033.2ZM2579.1,1104.79L2579.1,1468.89C2579.1,1468.89 630.017,1468.89 630.017,1468.89C630.017,1468.89 630.017,1104.79 630.017,1104.79C630.017,1104.79 2579.1,1104.79 2579.1,1104.79L2579.1,1104.79Z" style="fill:rgb(51,51,51);"/>
                </g>
                <g transform="matrix(0.664298,0,0,1,441.888,-18.3225)">
                    <text x="1368.94px" y="1608.6px" style="font-family:'TimesNewRomanPSMT', 'Times New Roman', serif;font-size:401.593px;fill:rgb(51,51,51);">INSER<tspan x="2487.87px 2733.18px " y="1608.6px 1608.6px ">TS</tspan></text>
                </g>
            </g>
        </g>
    </g>
</svg>
