<?xml version="1.0" encoding="UTF-8" standalone="no"?>
<!DOCTYPE svg PUBLIC "-//W3C//DTD SVG 1.1//EN" "http://www.w3.org/Graphics/SVG/1.1/DTD/svg11.dtd">
<svg width="100%" height="100%" viewBox="0 0 602 485" version="1.1" xmlns="http://www.w3.org/2000/svg" xmlns:xlink="http://www.w3.org/1999/xlink" xml:space="preserve" xmlns:serif="http://www.serif.com/" style="fill-rule:evenodd;clip-rule:evenodd;stroke-linecap:round;stroke-linejoin:round;stroke-miterlimit:1.5;">
    <g transform="matrix(1,0,0,1,-1453.19,-458.369)">
        <g id="sheep" transform="matrix(1.34101,0.0720222,-0.0720222,1.34101,1448.26,378.381)">
            <g transform="matrix(0.74356,-0.0399346,0.0399346,0.74356,-1091.98,-223.513)">
                <path d="M1462.89,938.944L1495.72,938.944L1496.21,932.991L1492.01,923.642L1490,919.94L1493.23,911.266L1507.33,895.712L1514.29,889.727L1527.47,886.288L1539.4,880.293L1559.91,874.207L1574.19,870.827L1587.16,866.27L1597.32,862.392L1600.16,860.886L1613.51,880.126L1624.19,902.541L1626.95,912.919L1641.97,921.467L1645.56,937.141L1647.97,938.944L1679.29,938.944L1681.16,938.224L1680.8,924.381L1671.77,912.285L1664.43,909.955L1661.22,902.871L1638.81,872.362L1636.93,860.926L1640.62,848.959L1647.78,839.114L1694.35,841.892L1722.01,841.719L1757.33,837.81L1773.93,837.596L1773.85,854.456L1773.92,858.33L1764.78,874.151L1759.89,887.988L1756.67,896.215L1748.93,906.752L1747.38,914.963L1752.03,921.019L1748.51,929.953L1749.67,934.162L1760.48,938.944L1780.12,938.944L1782.18,936.185L1781.38,925.36L1779.2,919.067L1779.93,900.952L1794.92,879.088L1798.44,859.924L1810.07,844.236L1826.62,829.367L1863.38,824.429L1904.14,822.195L1927.32,817.91L1950.32,818.947L1957.79,822.035L1970.65,836.773L1977.83,855.458L1979.24,860.234L1989.45,875.988L1991.31,882.447L1997.27,889.955L2015.01,894.225L2029.8,891.702L2031.87,884.072L2029.64,874L2019.38,864.325L2014.37,854.656L2001.83,836.012L1992.21,809.231L1985.77,800.315L1975.04,794.209L1946.1,787.402L1921.87,765.022L1927.05,750.99L1928.95,746.393L1933.68,740.673L1936.05,727.421L1946.7,714.446L1953.81,690.222L1964.73,672.285L1966.8,659.402L1974.62,647.658L1975.99,637.502L1978.71,617.743L1977.76,604.697L1976.88,595.25L1976.06,579.724L1952.95,479.783L1941.89,469.513L1936.91,464.27L1930.37,462.536L1914.3,463.331L1897.35,469.886L1885.52,479.203L1877.21,489.816L1872.06,503.362L1865.36,519.867L1857.88,535.777L1850.89,552.543L1847.3,562.856L1842.61,572.833L1839.75,579.868L1830.74,587.955L1821.78,595.214L1799.52,613.372L1786.4,625.938L1760.55,638.925L1752.51,639.323L1739.58,643.328L1711.73,641.833L1690.97,637.124L1684.33,637.32L1672.81,635.595L1662.33,635.033L1649.5,632.132L1641.53,631.151L1629.86,632.183L1613.54,632.412L1598.97,636.053L1585.77,639.768L1575.81,645.039L1564.71,651.078L1554.7,657.176L1544.6,665.203L1537.22,673.93L1527.88,688.082L1523.2,703.313L1519.07,713.32L1515.38,730.539L1513.17,745.903L1511.76,772.092L1511.74,782.873L1514.31,791.582L1513.85,800.128L1518.74,812.002L1525.73,820.948L1532.47,824.074L1539.14,823.327L1549.25,813.514L1550.54,813.673L1552.44,820.727L1549.73,832.19L1544.02,840.73L1532.98,845.39L1520.77,846.393L1511.29,847.819L1508.38,850.428L1491.26,875.773L1483.03,885.007L1470.04,895.092L1460.18,903.686L1459.34,909.169L1459.07,914.132L1457.35,930.628L1462.89,938.944Z" style="fill:rgb(51,51,51);stroke:white;stroke-width:8.33px;"/>
            </g>
            <path d="M166.756,334.615L156.765,333.876" style="fill:none;stroke:white;stroke-width:6.21px;"/>
            <path d="M93.049,318.787L87.209,303.553L80.836,287.724" style="fill:none;stroke:white;stroke-width:6.21px;"/>
            <path d="M339.938,71.556L330.893,72.214L325.795,77.805L320.532,83.397L317.736,87.015L315.598,91.948L312.803,99.678L312.474,107.736L314.612,108.558L318.723,108.558L322.835,107.078L324.315,104.94L329.248,102.474L333.36,99.513L337.142,94.415L341.089,90.139L344.872,87.015L347.503,85.206L350.134,82.245L349.477,78.627L347.503,75.503L342.898,72.049L339.938,71.556" style="fill:white;stroke:rgb(51,51,51);stroke-width:6.21px;"/>
            <path d="M379.737,55.768L376.612,55.932L370.198,55.768L366.087,57.084L363.291,59.715L361.811,61.853L358.028,64.32L355.726,67.609L354.246,71.556L353.752,77.476L351.943,83.89L351.779,90.057L351.943,94.58L352.272,99.349L355.068,103.296L357.042,108.558L360.331,112.67L363.455,116.617L367.896,119.413L372.172,120.728L376.776,122.702L382.861,125.169L387.959,125.826L393.222,126.155L399.471,126.32L401.116,125.991L405.885,125.004L414.601,123.36L431.211,121.551L437.461,120.235L449.137,110.203L454.349,97.54L451.604,88.33L445.355,82.903L404.734,65.8L392.071,62.84L384.835,57.906L379.737,55.768Z" style="fill:white;stroke:rgb(51,51,51);stroke-width:6.21px;"/>
            <path d="M131.798,353.155L147.03,342.611L159.981,329.66L169.026,317.943L174.576,301.908L176.279,293.172" style="fill:none;stroke:white;stroke-width:6.21px;"/>
            <path d="M261.05,328.744L277.768,326.174L298.983,320.377" style="fill:none;stroke:white;stroke-width:6.21px;"/>
            <g transform="matrix(0.992483,-0.12238,0.12238,0.992483,-6.29441,44.3468)">
                <g transform="matrix(0.735003,0.0699104,-0.0739594,0.777572,171.205,15.8519)">
                    <rect x="212.453" y="44.976" width="61.832" height="7.227" style="fill:white;"/>
                </g>
                <g transform="matrix(0.610433,0.0665789,-0.105889,0.970852,153.87,-37.2487)">
                    <circle cx="385.21" cy="87.568" r="17.165" style="fill:rgb(51,51,51);stroke:white;stroke-width:3.8px;"/>
                </g>
            </g>
            <g transform="matrix(0.955816,-0.293966,0.293966,0.955816,-79.0742,78.5732)">
                <g transform="matrix(0.74356,-0.0399346,0.0399346,0.74356,-1679.87,-297.398)">
                    <path d="M2468.84,791.764C2481.57,842.603 2467.74,883.734 2453.84,908.566L2482.81,853.303L2499.85,828.576L2510.54,813.205L2518.56,806.856L2524.24,807.858L2525.24,817.215L2520.23,839.269L2510.54,864.999L2500.18,883.043L2491.83,895.407L2474.45,914.788L2489.49,904.763L2500.85,898.748L2514.89,897.078L2528.92,899.417L2534.27,905.097L2534.93,914.454L2530.59,925.647L2523.91,935.506L2512.21,949.874L2501.85,959.231L2492.16,963.24L2488.15,959.565L2491.16,951.545L2498.85,943.191L2512.55,931.83L2526.25,921.805L2546.97,906.1L2561.67,897.078L2574.37,888.39L2586.39,883.043L2593.08,881.707L2567.69,892.955L2559.66,905.766L2555.65,915.122L2554.65,925.815L2560,927.152L2569.35,918.129L2578.38,909.107L2585.73,900.419L2591.74,891.397L2593.75,885.048L2593.08,881.707L2588.76,895.87L2587.06,908.773L2587.73,917.461L2590.74,923.81L2594.75,929.157C2595.99,930.18 2597.6,931.112 2601.43,931.496C2603.87,931.519 2606.17,930.2 2608.24,926.768L2609.45,921.137L2612.46,908.773L2617.81,901.756L2626.16,894.739L2642.2,888.39L2650.22,884.38L2636.84,890.512L2622.42,897.879L2611.19,913.983L2613.13,926.149L2620.14,923.476L2627.16,917.127L2633.85,909.107L2638.19,901.756L2644.54,893.402L2650.22,884.38L2638.19,901.756L2638.19,911.446L2639.86,917.127L2645.88,918.464L2653.23,916.459L2660.91,911.781L2668.6,905.432" style="fill:none;stroke:white;stroke-width:8.33px;"/>
                </g>
                <g transform="matrix(0.74035,-0.0797316,0.0797316,0.74035,-1698.27,-186.583)">
                    <path d="M2710.62,808.192L2699.59,828.576L2692.57,852.969L2687.56,871.682L2686.56,884.046" style="fill:none;stroke:white;stroke-width:8.33px;"/>
                </g>
                <g transform="matrix(0.74035,-0.0797316,0.0797316,0.74035,-1699.99,-188.649)">
                    <circle cx="2682.21" cy="927.486" r="7.351" style="fill:white;"/>
                </g>
            </g>
        </g>
    </g>
</svg>
